<?xml version="1.0" encoding="UTF-8" standalone="no"?>
<!DOCTYPE svg PUBLIC "-//W3C//DTD SVG 1.1//EN"
 "http://www.w3.org/Graphics/SVG/1.1/DTD/svg11.dtd">
<!-- Generated by graphviz version 2.30.1 (20140609.2006)
 -->
<!-- Title: services Pages: 1 -->
<svg width="590pt" height="198pt"
 viewBox="0.00 0.00 590.00 197.63" xmlns="http://www.w3.org/2000/svg" xmlns:xlink="http://www.w3.org/1999/xlink">
<g id="graph0" class="graph" transform="scale(1 1) rotate(0) translate(4 193.626)">
<title>services</title>
<polygon fill="white" stroke="white" points="-4,5 -4,-193.626 587,-193.626 587,5 -4,5"/>
<!-- sonarqubedb -->
<g id="node1" class="node"><title>sonarqubedb</title>
<ellipse fill="#f5f5f5" stroke="#dddddd" cx="537" cy="-21.6256" rx="44.1452" ry="18"/>
<text text-anchor="middle" x="537" y="-18.5256" font-family="Arial" font-size="12.00" fill="#333333">postgresql</text>
</g>
<!-- phpldapadmin -->
<g id="node2" class="node"><title>phpldapadmin</title>
<g id="a_node2"><a xlink:href="http://localhost/ldap" xlink:title="phpLDAPadmin" target="ldap">
<polygon fill="#f5f5f5" stroke="#dddddd" points="347,-89.6256 203,-89.6256 203,-53.6256 347,-53.6256 347,-89.6256"/>
<text text-anchor="middle" x="275" y="-67.9256" font-family="Arial" font-size="14.00" fill="#333333">phpLDAPadmin</text>
</a>
</g>
</g>
<!-- openldap -->
<g id="node6" class="node"><title>openldap</title>
<ellipse fill="#f5f5f5" stroke="#dddddd" cx="537" cy="-96.6256" rx="41.4901" ry="18"/>
<text text-anchor="middle" x="537" y="-93.5256" font-family="Arial" font-size="12.00" fill="#333333">openldap</text>
</g>
<!-- phpldapadmin&#45;&gt;openldap -->
<g id="edge4" class="edge"><title>phpldapadmin&#45;&gt;openldap</title>
<path fill="none" stroke="gray" d="M347.34,-74.3686C428.323,-77.5957 456.446,-79.7229 490.492,-86.3592"/>
<polygon fill="gray" stroke="gray" points="489.804,-89.7908 500.301,-88.3552 491.2,-82.9314 489.804,-89.7908"/>
</g>
<!-- sonarqube -->
<g id="node3" class="node"><title>sonarqube</title>
<g id="a_node3"><a xlink:href="http://localhost/sonar" xlink:title="SonarQube" target="sonar">
<polygon fill="#f5f5f5" stroke="#dddddd" points="347,-39.6256 203,-39.6256 203,-3.62562 347,-3.62562 347,-39.6256"/>
<text text-anchor="middle" x="275" y="-17.9256" font-family="Arial" font-size="14.00" fill="#333333">SonarQube</text>
</a>
</g>
</g>
<!-- sonarqube&#45;&gt;openldap -->
<g id="edge3" class="edge"><title>sonarqube&#45;&gt;openldap</title>
<path fill="none" stroke="gray" d="M347.141,-29.9193C439.857,-41.1134 463.165,-47.8781 505.988,-75.6684"/>
<polygon fill="gray" stroke="gray" points="504.261,-78.7221 514.534,-81.3104 508.117,-72.8802 504.261,-78.7221"/>
</g>
<!-- sonarqube&#45;&gt;sonarqubedb -->
<g id="edge5" class="edge"><title>sonarqube&#45;&gt;sonarqubedb</title>
<path fill="none" stroke="gray" d="M347.016,-10.0182C426.479,2.28177 452.61,3.07499 492.183,-7.63853"/>
<polygon fill="gray" stroke="gray" points="491.418,-11.0598 501.994,-10.4371 493.338,-4.32826 491.418,-11.0598"/>
</g>
<!-- jenkins -->
<g id="node4" class="node"><title>jenkins</title>
<g id="a_node4"><a xlink:href="http://localhost/jenkins" xlink:title="Jenkins" target="jenkins">
<polygon fill="#f5f5f5" stroke="#dddddd" points="347,-139.626 203,-139.626 203,-103.626 347,-103.626 347,-139.626"/>
<text text-anchor="middle" x="275" y="-117.926" font-family="Arial" font-size="14.00" fill="#333333">Jenkins</text>
</a>
</g>
</g>
<!-- jenkins&#45;&gt;openldap -->
<g id="edge1" class="edge"><title>jenkins&#45;&gt;openldap</title>
<path fill="none" stroke="gray" d="M347.303,-119.199C428.447,-116.308 456.503,-114.22 490.695,-107.284"/>
<polygon fill="gray" stroke="gray" points="491.494,-110.693 500.551,-105.195 490.042,-103.845 491.494,-110.693"/>
</g>
<!-- portal -->
<g id="node5" class="node"><title>portal</title>
<g id="a_node5"><a xlink:href="http://localhost/" xlink:title="ALMinium (Redmine)" target="portal">
<polygon fill="#f5f5f5" stroke="#dddddd" points="348,-189.626 202,-189.626 202,-153.626 348,-153.626 348,-189.626"/>
<text text-anchor="middle" x="275" y="-167.926" font-family="Arial" font-size="14.00" fill="#333333">ALMinium (Redmine)</text>
</a>
</g>
</g>
<!-- portal&#45;&gt;openldap -->
<g id="edge2" class="edge"><title>portal&#45;&gt;openldap</title>
<path fill="none" stroke="gray" d="M348.209,-163.481C440.303,-152.666 463.367,-145.824 506.545,-117.435"/>
<polygon fill="gray" stroke="gray" points="508.492,-120.343 514.863,-111.878 504.603,-114.523 508.492,-120.343"/>
</g>
<!-- nginx -->
<g id="node7" class="node"><title>nginx</title>
<ellipse fill="#f5f5f5" stroke="#dddddd" cx="29" cy="-96.6256" rx="28.1352" ry="18"/>
<text text-anchor="middle" x="29" y="-93.5256" font-family="Arial" font-size="12.00" fill="#333333">nginx</text>
</g>
<!-- nginx&#45;&gt;portal -->
<g id="edge6" class="edge"><title>nginx&#45;&gt;portal</title>
<path fill="none" stroke="gray" d="M48.3001,-110.062C92.0123,-140.055 110.639,-147.795 191.7,-159.965"/>
<polygon fill="gray" stroke="gray" points="191.497,-163.473 201.901,-161.473 192.52,-156.548 191.497,-163.473"/>
<text text-anchor="middle" x="167.4" y="-169.253" font-family="Arial" font-size="10.00" fill="gray">http://server/</text>
</g>
<!-- nginx&#45;&gt;jenkins -->
<g id="edge7" class="edge"><title>nginx&#45;&gt;jenkins</title>
<path fill="none" stroke="gray" d="M55.7622,-102.909C94.7847,-111.776 115.761,-114.288 192.753,-117.971"/>
<polygon fill="gray" stroke="gray" points="192.792,-121.477 202.945,-118.451 193.121,-114.484 192.792,-121.477"/>
<text text-anchor="middle" x="158.537" y="-134.169" font-family="Arial" font-size="10.00" fill="gray">http://server/jenkins</text>
</g>
<!-- nginx&#45;&gt;sonarqube -->
<g id="edge8" class="edge"><title>nginx&#45;&gt;sonarqube</title>
<path fill="none" stroke="gray" d="M48.5749,-83.2609C92.0698,-54.0074 110.763,-46.4328 192.818,-33.6577"/>
<polygon fill="gray" stroke="gray" points="193.515,-37.0917 202.868,-32.1141 192.452,-30.1729 193.515,-37.0917"/>
<text text-anchor="middle" x="154.633" y="-16.4472" font-family="Arial" font-size="10.00" fill="gray">http://server/sonar</text>
</g>
<!-- nginx&#45;&gt;phpldapadmin -->
<g id="edge9" class="edge"><title>nginx&#45;&gt;phpldapadmin</title>
<path fill="none" stroke="gray" d="M56.0618,-90.7214C94.7896,-82.5373 115.862,-80.0739 192.572,-75.8827"/>
<polygon fill="gray" stroke="gray" points="192.929,-79.3686 202.726,-75.3349 192.552,-72.3788 192.929,-79.3686"/>
<text text-anchor="middle" x="161.707" y="-52.0145" font-family="Arial" font-size="10.00" fill="gray">http://server/ldap</text>
</g>
</g>
</svg>
