<?xml version="1.0" encoding="UTF-8" standalone="no"?>
<!DOCTYPE svg PUBLIC "-//W3C//DTD SVG 1.1//EN"
 "http://www.w3.org/Graphics/SVG/1.1/DTD/svg11.dtd">
<!-- Generated by graphviz version 2.30.1 (20140609.2006)
 -->
<!-- Title: services Pages: 1 -->
<svg width="588pt" height="225pt"
 viewBox="0.00 0.00 588.00 224.90" xmlns="http://www.w3.org/2000/svg" xmlns:xlink="http://www.w3.org/1999/xlink">
<g id="graph0" class="graph" transform="scale(1 1) rotate(0) translate(4 220.897)">
<title>services</title>
<polygon fill="white" stroke="white" points="-4,5 -4,-220.897 585,-220.897 585,5 -4,5"/>
<!-- sonarqubedb -->
<g id="node1" class="node"><title>sonarqubedb</title>
<ellipse fill="#f5f5f5" stroke="#dddddd" cx="535" cy="-23.8975" rx="44.1452" ry="18"/>
<text text-anchor="middle" x="535" y="-20.7975" font-family="Arial" font-size="12.00" fill="#333333">postgresql</text>
</g>
<!-- gitlabdb -->
<g id="node2" class="node"><title>gitlabdb</title>
<ellipse fill="#f5f5f5" stroke="#dddddd" cx="535" cy="-148.897" rx="44.1452" ry="18"/>
<text text-anchor="middle" x="535" y="-145.797" font-family="Arial" font-size="12.00" fill="#333333">postgresql</text>
</g>
<!-- redis -->
<g id="node3" class="node"><title>redis</title>
<ellipse fill="#f5f5f5" stroke="#dddddd" cx="535" cy="-198.897" rx="29.5964" ry="18"/>
<text text-anchor="middle" x="535" y="-195.797" font-family="Arial" font-size="12.00" fill="#333333">Redis</text>
</g>
<!-- phpldapadmin -->
<g id="node4" class="node"><title>phpldapadmin</title>
<g id="a_node4"><a xlink:href="http://localhost/ldap" xlink:title="phpLDAPadmin" target="ldap">
<polygon fill="#f5f5f5" stroke="#dddddd" points="346,-91.8975 202,-91.8975 202,-55.8975 346,-55.8975 346,-91.8975"/>
<text text-anchor="middle" x="274" y="-70.1975" font-family="Arial" font-size="14.00" fill="#333333">phpLDAPadmin</text>
</a>
</g>
</g>
<!-- openldap -->
<g id="node8" class="node"><title>openldap</title>
<ellipse fill="#f5f5f5" stroke="#dddddd" cx="535" cy="-98.8975" rx="41.4901" ry="18"/>
<text text-anchor="middle" x="535" y="-95.7975" font-family="Arial" font-size="12.00" fill="#333333">openldap</text>
</g>
<!-- phpldapadmin&#45;&gt;openldap -->
<g id="edge4" class="edge"><title>phpldapadmin&#45;&gt;openldap</title>
<path fill="none" stroke="gray" d="M346.101,-74.5037C428.077,-75.4385 455.383,-77.3563 490.725,-86.2635"/>
<polygon fill="gray" stroke="gray" points="489.875,-89.659 500.437,-88.8231 491.659,-82.8901 489.875,-89.659"/>
</g>
<!-- sonarqube -->
<g id="node5" class="node"><title>sonarqube</title>
<g id="a_node5"><a xlink:href="http://localhost/sonar" xlink:title="SonarQube" target="sonar">
<polygon fill="#f5f5f5" stroke="#dddddd" points="346,-41.8975 202,-41.8975 202,-5.89749 346,-5.89749 346,-41.8975"/>
<text text-anchor="middle" x="274" y="-20.1975" font-family="Arial" font-size="14.00" fill="#333333">SonarQube</text>
</a>
</g>
</g>
<!-- sonarqube&#45;&gt;openldap -->
<g id="edge3" class="edge"><title>sonarqube&#45;&gt;openldap</title>
<path fill="none" stroke="gray" d="M346.295,-30.4187C438.065,-39.3409 460.653,-46.2565 505.218,-77.3605"/>
<polygon fill="gray" stroke="gray" points="503.32,-80.305 513.503,-83.2303 507.367,-74.5933 503.32,-80.305"/>
</g>
<!-- sonarqube&#45;&gt;sonarqubedb -->
<g id="edge5" class="edge"><title>sonarqube&#45;&gt;sonarqubedb</title>
<path fill="none" stroke="gray" d="M346.269,-10.7945C424.714,2.82293 450.145,3.40435 491.403,-9.05021"/>
<polygon fill="gray" stroke="gray" points="490.475,-12.4277 501.065,-12.0997 492.582,-5.75224 490.475,-12.4277"/>
</g>
<!-- jenkins -->
<g id="node6" class="node"><title>jenkins</title>
<g id="a_node6"><a xlink:href="http://localhost/jenkins" xlink:title="Jenkins" target="jenkins">
<polygon fill="#f5f5f5" stroke="#dddddd" points="346,-141.897 202,-141.897 202,-105.897 346,-105.897 346,-141.897"/>
<text text-anchor="middle" x="274" y="-120.197" font-family="Arial" font-size="14.00" fill="#333333">Jenkins</text>
</a>
</g>
</g>
<!-- jenkins&#45;&gt;openldap -->
<g id="edge1" class="edge"><title>jenkins&#45;&gt;openldap</title>
<path fill="none" stroke="gray" d="M346.178,-119.465C425.228,-114.52 453.768,-112.16 486.643,-107.134"/>
<polygon fill="gray" stroke="gray" points="487.23,-110.585 496.558,-105.562 486.134,-103.671 487.23,-110.585"/>
</g>
<!-- portal -->
<g id="node7" class="node"><title>portal</title>
<g id="a_node7"><a xlink:href="http://localhost/" xlink:title="GitLab" target="portal">
<polygon fill="#f5f5f5" stroke="#dddddd" points="346,-191.897 202,-191.897 202,-155.897 346,-155.897 346,-191.897"/>
<text text-anchor="middle" x="274" y="-170.197" font-family="Arial" font-size="14.00" fill="#333333">GitLab</text>
</a>
</g>
</g>
<!-- portal&#45;&gt;openldap -->
<g id="edge2" class="edge"><title>portal&#45;&gt;openldap</title>
<path fill="none" stroke="gray" d="M346.311,-164.039C438.206,-151.045 461.923,-144.297 503.162,-119.168"/>
<polygon fill="gray" stroke="gray" points="505.017,-122.136 511.669,-113.89 501.327,-116.188 505.017,-122.136"/>
</g>
<!-- portal&#45;&gt;redis -->
<g id="edge6" class="edge"><title>portal&#45;&gt;redis</title>
<path fill="none" stroke="gray" d="M346.317,-191.208C429.083,-210.533 453.441,-212.981 496.845,-205.972"/>
<polygon fill="gray" stroke="gray" points="497.471,-209.416 506.738,-204.279 496.291,-202.516 497.471,-209.416"/>
</g>
<!-- portal&#45;&gt;gitlabdb -->
<g id="edge7" class="edge"><title>portal&#45;&gt;gitlabdb</title>
<path fill="none" stroke="gray" d="M346.187,-177.598C428.974,-181.39 454.781,-179.573 493.765,-165.428"/>
<polygon fill="gray" stroke="gray" points="495.308,-168.587 503.431,-161.785 492.84,-162.037 495.308,-168.587"/>
</g>
<!-- nginx -->
<g id="node9" class="node"><title>nginx</title>
<ellipse fill="#f5f5f5" stroke="#dddddd" cx="29" cy="-98.8975" rx="28.1352" ry="18"/>
<text text-anchor="middle" x="29" y="-95.7975" font-family="Arial" font-size="12.00" fill="#333333">nginx</text>
</g>
<!-- nginx&#45;&gt;portal -->
<g id="edge8" class="edge"><title>nginx&#45;&gt;portal</title>
<path fill="none" stroke="gray" d="M49.0395,-112.016C91.4621,-139.35 110.287,-146.755 191.613,-160.587"/>
<polygon fill="gray" stroke="gray" points="191.405,-164.101 201.847,-162.307 192.566,-157.198 191.405,-164.101"/>
<text text-anchor="middle" x="167.149" y="-169.402" font-family="Arial" font-size="10.00" fill="gray">http://server/</text>
</g>
<!-- nginx&#45;&gt;jenkins -->
<g id="edge9" class="edge"><title>nginx&#45;&gt;jenkins</title>
<path fill="none" stroke="gray" d="M56.2405,-103.879C94.5101,-110.689 115.59,-113.055 191.718,-118.348"/>
<polygon fill="gray" stroke="gray" points="191.576,-121.846 201.794,-119.044 192.058,-114.863 191.576,-121.846"/>
<text text-anchor="middle" x="156.997" y="-133.784" font-family="Arial" font-size="10.00" fill="gray">http://server/jenkins</text>
</g>
<!-- nginx&#45;&gt;sonarqube -->
<g id="edge10" class="edge"><title>nginx&#45;&gt;sonarqube</title>
<path fill="none" stroke="gray" d="M47.6924,-85.3376C92.2494,-53.4476 110.605,-45.5247 191.696,-34.3438"/>
<polygon fill="gray" stroke="gray" points="192.462,-37.7721 201.902,-32.9623 191.523,-30.8354 192.462,-37.7721"/>
<text text-anchor="middle" x="153.91" y="-16.4363" font-family="Arial" font-size="10.00" fill="gray">http://server/sonar</text>
</g>
<!-- nginx&#45;&gt;phpldapadmin -->
<g id="edge11" class="edge"><title>nginx&#45;&gt;phpldapadmin</title>
<path fill="none" stroke="gray" d="M55.0935,-91.844C94.4725,-81.5503 115.168,-78.9093 191.675,-76.3194"/>
<polygon fill="gray" stroke="gray" points="191.924,-79.8132 201.804,-75.9868 191.695,-72.817 191.924,-79.8132"/>
<text text-anchor="middle" x="161.233" y="-51.8067" font-family="Arial" font-size="10.00" fill="gray">http://server/ldap</text>
</g>
</g>
</svg>
